<svg id="Layer_1" data-name="Layer 1" xmlns="http://www.w3.org/2000/svg" viewBox="0 0 585.31 217.24"><title>glance</title><path d="M101.42,199.84a12.52,12.52,0,0,1-12.13,15.59H13.83A13.83,13.83,0,0,1,0,201.6V15.27A13.83,13.83,0,0,1,13.83,1.44H89.14a12.5,12.5,0,1,1,.15,25H35.92A10.92,10.92,0,0,0,25,37.35V179.52a10.92,10.92,0,0,0,10.92,10.92H89.14A12.54,12.54,0,0,1,101.42,199.84Z" style="fill:#3e83be"/><path d="M84.17,104.65c-.09-22.82,18.16-41.38,42.31-41.47,9.61,0,17.63,1.87,25.09,6.3,2.64,1.7,3,4,1.4,6.73L150.91,79c-1.59,2.63-3.76,3-6.63,1.62a33.12,33.12,0,0,0-17.75-4.16c-15.34.06-27.08,12.54-27,28.17.05,14.27,9.83,27.81,28.37,27.74A32.09,32.09,0,0,0,144,128.05l-.05-13.62-16.14.06a4.79,4.79,0,0,1-4.81-4.78v-2.47a4.79,4.79,0,0,1,4.78-4.81l25.42-.09a4.79,4.79,0,0,1,4.81,4.78l.09,23.05c0,2.51-.9,4.57-3.52,6.52a45,45,0,0,1-27.09,8.89C102.06,145.67,84.25,127.13,84.17,104.65Z" style="fill:#3e83be"/><path d="M172,139.71l-.26-72.49c0-3.06,1.64-4.77,4.63-4.78l5,0c3,0,4.65,1.68,4.66,4.75l.26,72.49c0,3.06-1.64,4.77-4.63,4.78l-5,0C173.68,144.47,172,142.77,172,139.71Z" style="fill:#3e83be"/><path d="M198,115.7c-.06-16.89,11.41-30.35,28.19-30.35,14.16,0,19.76,9.86,19.76,9.86V91.36a4.91,4.91,0,0,1,4.89-4.93l5.1,0c3.14,0,5,1.81,5,4.89l.18,48.31c0,3.08-1.84,4.8-5,4.82h-5.32s-4.8-1.64-5.88-4.72v-3.88c-3.83,7.09-10.89,10-18.54,10C209.69,145.9,198.11,132.59,198,115.7Zm48.16-.18c-.15-10.38-6.92-18-17.07-18-10.39,0-16.4,8.28-16.37,18.09s6.11,18,16.5,18C239.43,133.57,246.13,125.9,246.21,115.52Z" style="fill:#3e83be"/><path d="M276,139.67l-.18-48.31c0-3.08,1.74-4.92,4.89-4.93l5.36,0A4.91,4.91,0,0,1,291,91.31l0,5.4c2.59-7.34,9.4-11.6,18.27-11.63,14.1-.05,21.65,10.22,21.71,26.14l.11,28.4c0,3.09-1.8,4.82-4.87,4.83l-5.5,0c-3,0-4.72-1.69-4.73-4.78l-.1-27.62c0-9.93-4.32-14.48-10.26-14.45s-14.69,4.51-14.63,18.66l.09,23.35c0,3.08-1.85,4.8-5,4.82l-5.15,0C277.77,144.47,276,142.76,276,139.67Z" style="fill:#3e83be"/><path d="M342.07,115.62c-.06-16.89,12.21-30.74,33-30.82a35.12,35.12,0,0,1,17.82,4.84c2.74,1.59,3.1,4.21,1.17,6.73l-1.36,1.72c-1.82,2.52-3.87,2.64-6.73,1.28a23.11,23.11,0,0,0-10.05-2.24c-11.07,0-19.14,7.49-19.1,18s8.17,18,19.24,18a25,25,0,0,0,10-2.32c2.85-1.38,5-1.27,6.74,1.12l1.38,1.82c1.83,2.5,1.28,5.47-2.48,7.43a34.18,34.18,0,0,1-16.42,4.17C355,145.35,342.13,132.17,342.07,115.62Z" style="fill:#3e83be"/><path d="M402.1,114.71c-.06-16.55,12.55-30.52,31.38-30.59,15.52-.06,29,9.25,30.23,27.73.24,3-1.69,4.57-4.78,4.58l-42.57.16c-.2,8.79,7.59,15.95,19.57,15.9a26.15,26.15,0,0,0,14.25-4.28c2.5-1.49,4.79-1.27,6.74.89l1,1.25c2.06,2.27,2,5.13-.88,7.31-6.6,5.16-14.47,6.9-21.77,6.93C414.77,144.67,402.16,131.25,402.1,114.71Zm47.45-7.39c-2.32-9.12-9.63-11.38-15.79-11.35-6.39,0-14,2.68-16.73,11.47Z" style="fill:#3e83be"/><path d="M476.69,217.24a14,14,0,0,1-9.93-24l76.92-76.92a10.92,10.92,0,0,0,0-15.44L466.76,24A14,14,0,0,1,486.62,4.11L581.2,98.69a14,14,0,0,1,0,19.86l-94.57,94.57A14,14,0,0,1,476.69,217.24Z" style="fill:#3e83be"/></svg>